<?xml version="1.0" encoding="UTF-8"?><svg xmlns="http://www.w3.org/2000/svg" xmlns:xlink="http://www.w3.org/1999/xlink" height="2689.7" preserveAspectRatio="xMidYMid meet" version="1.0" viewBox="0.0 0.0 3799.6 2689.7" width="3799.6" zoomAndPan="magnify"><defs><clipPath id="a"><path d="M 0 134 L 3799.589844 134 L 3799.589844 2592 L 0 2592 Z M 0 134"/></clipPath><clipPath id="b"><path d="M 4 0 L 3739 0 L 3739 2689.699219 L 4 2689.699219 Z M 4 0"/></clipPath></defs><g><g clip-path="url(#a)" id="change1_1"><path d="M 2597.546875 149.097656 C 1630.519531 64.484375 450.996094 362.460938 332.699219 888.648438 C 227.824219 1355.128906 201.019531 1766.199219 872.464844 1998.722656 C 710.96875 2232.679688 437.34375 2499.832031 0 2591.238281 C 501.074219 2529.800781 951.734375 2324.480469 1252.527344 2096.410156 C 1454.847656 2134.582031 1696.378906 2163 1984.058594 2180.289062 C 2952.984375 2238.519531 3747.636719 2189.25 3794.605469 1652.351562 C 3841.578125 1115.441406 3564.578125 233.691406 2597.546875 149.097656" fill="#f2f2f2"/></g><g clip-path="url(#b)" id="change2_1"><path d="M 3676.242188 1433.488281 C 3674.613281 1481.921875 3665.898438 1529.628906 3648.722656 1574.058594 C 3631.726562 1618.5625 3606.410156 1659.582031 3574.945312 1695.839844 C 3543.457031 1732.121094 3506.097656 1763.742188 3465.433594 1791.160156 C 3424.75 1818.609375 3380.878906 1842 3335.398438 1862.371094 C 3289.898438 1882.75 3242.746094 1900.042969 3194.769531 1915.238281 C 3146.769531 1930.402344 3097.921875 1943.441406 3048.613281 1954.859375 C 2949.929688 1977.679688 2849.457031 1994.390625 2748.386719 2007.417969 C 2647.269531 2020.347656 2545.515625 2029.667969 2443.527344 2036.800781 C 2341.496094 2043.890625 2239.21875 2048.75 2136.808594 2052.191406 C 2034.410156 2055.5 1931.761719 2057.992188 1829.558594 2058.179688 C 1727.289062 2058.378906 1625.101562 2056.769531 1523.21875 2052.28125 C 1421.359375 2047.890625 1319.761719 2040.652344 1218.980469 2029.332031 L 1217.921875 2029.207031 C 1203.449219 2027.660156 1188.421875 2032.269531 1177.089844 2043.140625 C 1097.96875 2120.179688 1011.949219 2191.300781 921.402344 2256.628906 C 830.769531 2321.898438 735.527344 2381.410156 636.835938 2435.058594 C 511.421875 2503.191406 380.324219 2561.75 245.035156 2609.671875 C 252.519531 2606.339844 259.988281 2602.96875 267.414062 2599.488281 C 350.351562 2560.859375 429.867188 2513.640625 504.140625 2458.589844 C 578.453125 2403.582031 647.496094 2340.847656 710.402344 2272.167969 C 773.417969 2203.539062 830.035156 2128.832031 880.578125 2050 C 883.417969 2045.519531 885.871094 2040.351562 887.476562 2035.019531 C 896.988281 2003.457031 879.121094 1970.171875 847.5625 1960.652344 L 841.625 1958.859375 L 841.609375 1958.859375 C 763.621094 1944.621094 686.789062 1924.851562 613.644531 1896.699219 C 577.058594 1882.699219 541.484375 1866.480469 507.25 1848.070312 C 498.863281 1843.230469 490.214844 1838.710938 482.007812 1833.589844 L 469.550781 1826.089844 L 457.351562 1818.242188 C 453.246094 1815.660156 449.238281 1812.960938 445.289062 1810.191406 L 433.359375 1801.949219 C 425.648438 1796.179688 417.753906 1790.570312 410.300781 1784.480469 C 349.652344 1736.898438 298.910156 1677.222656 263.4375 1608.210938 C 227.621094 1539.332031 207.207031 1462.0625 197.382812 1383.070312 C 192.511719 1343.511719 190.121094 1303.441406 189.550781 1263.191406 C 189.148438 1222.929688 190.4375 1182.519531 192.917969 1142.070312 C 195.335938 1101.621094 199.253906 1061.160156 203.667969 1020.699219 C 205.871094 1000.53125 208.273438 980.109375 210.796875 960.132812 C 213.34375 940.785156 217.414062 921.605469 222.808594 902.753906 C 233.730469 865.074219 249.84375 828.726562 269.941406 794.5 C 290.023438 760.246094 313.867188 728.019531 340.082031 697.730469 C 366.316406 667.425781 394.984375 639.082031 425.269531 612.480469 C 455.558594 585.871094 487.339844 560.832031 520.257812 537.308594 C 553.160156 513.753906 587.195312 491.699219 621.882812 470.695312 C 656.65625 449.816406 692.148438 430.082031 728.226562 411.417969 C 800.390625 374.121094 874.695312 340.796875 950.382812 310.960938 C 1026.070312 281.125 1102.988281 254.3125 1180.777344 230.324219 C 1258.609375 206.449219 1337.25 185.214844 1416.460938 166.386719 C 1574.890625 128.773438 1735.550781 100.75 1897.121094 81.460938 C 2058.730469 62.585938 2221.308594 51.878906 2383.761719 52.589844 C 2484.992188 53 2586.085938 62.542969 2684.628906 83.824219 C 2783.175781 104.992188 2878.972656 138.039062 2968.828125 183.035156 C 3058.65625 228.007812 3142.6875 284.632812 3217.636719 351.644531 C 3255.175781 385.058594 3290.609375 420.882812 3323.820312 458.699219 C 3357.027344 496.523438 3387.710938 536.582031 3416.289062 578.085938 C 3530.359375 744.441406 3607.671875 935.792969 3647.621094 1133.710938 C 3652.6875 1158.453125 3656.839844 1183.351562 3660.714844 1208.28125 C 3664.292969 1233.25 3667.640625 1258.257812 3669.980469 1283.351562 C 3672.390625 1308.421875 3674.316406 1333.539062 3675.300781 1358.660156 C 3675.96875 1371.21875 3676.105469 1383.78125 3676.425781 1396.328125 C 3676.472656 1408.890625 3676.679688 1421.542969 3676.242188 1433.488281 Z M 3737.683594 1395.179688 C 3737.222656 1382.03125 3736.949219 1368.859375 3736.121094 1355.738281 C 3734.816406 1329.472656 3732.566406 1303.289062 3729.792969 1277.191406 C 3727.109375 1251.082031 3723.347656 1225.109375 3719.378906 1199.199219 C 3715.113281 1173.339844 3710.527344 1147.539062 3705.046875 1121.929688 C 3694.476562 1070.621094 3681.058594 1019.941406 3665.667969 969.90625 C 3650.210938 919.886719 3632.09375 870.707031 3612.050781 822.332031 C 3571.617188 725.757812 3521.921875 632.796875 3462.109375 546.511719 C 3402.527344 460.117188 3332.855469 380.402344 3254.144531 310.523438 C 3175.597656 240.484375 3087.394531 181.179688 2993.203125 134.1875 C 2898.96875 87.195312 2798.542969 53.09375 2695.867188 31.375 C 2593.148438 9.5625 2488.269531 0.046875 2383.761719 0 C 2301.339844 0.390625 2218.980469 3.511719 2136.839844 9.242188 C 2095.757812 12.0625 2054.738281 15.574219 2013.789062 19.699219 C 1972.851562 23.898438 1931.980469 28.691406 1891.191406 34.082031 C 1728.03125 55.617188 1566.21875 86.714844 1406.832031 127.304688 C 1327.148438 147.625 1248.082031 170.398438 1169.859375 195.785156 C 1091.628906 221.175781 1014.191406 249.0625 938.027344 280.253906 C 861.902344 311.488281 786.867188 345.566406 713.84375 383.773438 C 640.851562 422.003906 569.699219 464.152344 502.269531 512.085938 C 434.902344 560 371.039062 613.746094 315.507812 676.195312 C 287.828125 707.441406 262.457031 741.011719 240.648438 777.066406 C 218.757812 813.039062 200.769531 851.761719 188.257812 892.503906 C 182.03125 912.882812 177.355469 933.773438 174.066406 954.914062 C 171 975.46875 168.171875 995.628906 165.472656 1016.070312 C 159.996094 1056.828125 155.433594 1097.78125 151.582031 1138.910156 C 147.792969 1180.039062 145.1875 1221.410156 144.332031 1262.980469 C 143.433594 1304.539062 144.1875 1346.351562 147.722656 1388.191406 C 151.375 1430 157.132812 1471.960938 167.042969 1513.339844 C 176.765625 1554.730469 190.199219 1595.609375 207.765625 1634.960938 C 216.535156 1654.648438 226.589844 1673.800781 237.410156 1692.539062 C 248.183594 1711.308594 260.144531 1729.441406 273.011719 1746.902344 C 285.820312 1764.410156 299.613281 1781.222656 314.203125 1797.269531 C 328.730469 1813.390625 344.023438 1828.820312 360.085938 1843.332031 C 392.039062 1872.621094 426.585938 1898.742188 462.535156 1922.417969 C 498.519531 1946.03125 536.046875 1966.898438 574.289062 1985.980469 C 612.582031 2004.992188 651.714844 2021.898438 691.3125 2037.3125 C 706.632812 2043.230469 722.019531 2048.960938 737.449219 2054.539062 C 707.210938 2108.75 673.738281 2161.289062 636.746094 2211.441406 C 584.996094 2281.800781 526.621094 2347.691406 461.871094 2407.367188 C 397.160156 2467.070312 326.074219 2520.480469 249.886719 2566.480469 C 173.757812 2612.648438 92.253906 2650.589844 7.757812 2681.550781 L 7.75 2681.550781 C 5.773438 2682.160156 4.511719 2684.160156 4.878906 2686.25 C 5.277344 2688.519531 7.4375 2690.03125 9.703125 2689.628906 L 9.820312 2689.609375 C 233.851562 2650.269531 453.714844 2581.871094 662.84375 2487.5 C 767.398438 2440.269531 869.367188 2386.621094 967.71875 2326.269531 C 1059.097656 2270.070312 1147.390625 2208.128906 1231.160156 2139.417969 C 1431.488281 2155.421875 1631.480469 2157.71875 1830.800781 2153.082031 C 1934.347656 2150.480469 2037.390625 2146.46875 2140.578125 2141.25 C 2243.75 2135.980469 2346.929688 2129.269531 2450.0625 2120.28125 C 2553.195312 2111.257812 2656.261719 2100.011719 2759.027344 2085.03125 C 2861.769531 2070.03125 2964.308594 2051.640625 3065.789062 2026.570312 C 3167.15625 2001.410156 3267.792969 1969.972656 3364.160156 1925.441406 C 3412.273438 1903.160156 3459.242188 1877.441406 3503.503906 1846.769531 C 3547.722656 1816.132812 3589.207031 1780.3125 3624.710938 1738.398438 C 3660.144531 1696.5625 3689.152344 1648.378906 3708.210938 1596.441406 C 3727.5 1544.582031 3736.71875 1489.519531 3737.886719 1435.179688 C 3738.210938 1421.417969 3737.867188 1408.339844 3737.683594 1395.179688" fill="#1e1e1e"/></g></g></svg>